<svg width="91" height="110" viewBox="0 0 91 110" fill="none" xmlns="http://www.w3.org/2000/svg">
<g filter="url(#filter0_d_3055_1652)">
<path fill-rule="evenodd" clip-rule="evenodd" d="M82.9902 10.6641C82.9902 10.6664 82.9902 10.6676 82.9901 10.6676C82.99 10.6676 82.9897 10.6656 82.9891 10.6616C82.9853 10.6351 82.969 10.52 82.8983 10.3097C82.8123 10.054 82.6675 9.72203 82.4473 9.34001C82.0073 8.57682 81.3014 7.67426 80.2758 6.83145C78.2603 5.17523 74.9221 3.67812 69.7296 4.06004C60.9243 4.70771 53.7675 7.65435 48.4446 11.6471C52.9501 15.9627 55.9163 21.0466 57.0743 26.076C57.4814 25.5585 57.9157 25.0633 58.373 24.5944C61.2522 21.642 65.2537 19.5168 69.5829 19.5168H82.9902V10.6641ZM35.5969 100.134C36.6488 100.878 37.9516 101.154 39.308 101.154H51.7701C53.4353 101.154 55.0197 100.737 56.1584 99.5515C57.2821 98.3811 57.6221 96.8224 57.6221 95.3165V34.322C57.959 31.9208 59.2584 29.4157 61.2367 27.3871C63.5454 25.0197 66.5678 23.5168 69.5829 23.5168H84.9902H86.9902V21.5168V10.6603C86.9902 9.64779 86.5482 8.44464 85.9127 7.34226C85.2383 6.17254 84.2219 4.89697 82.8154 3.74108C79.9664 1.3999 75.601 -0.382627 69.4362 0.0708201C59.5967 0.794552 51.4153 4.23335 45.3458 8.99208C39.3072 4.36243 31.2323 1.02998 21.5542 0.319533C15.3904 -0.132936 11.0255 1.64565 8.17648 3.98225C6.76979 5.13594 5.7531 6.40925 5.07846 7.57719C4.44282 8.67762 4 9.87967 4 10.8922V21.7274V23.7274H6H21.4078C24.4245 23.7274 27.4474 25.228 29.7557 27.5903C31.7349 29.6159 33.0338 32.1165 33.3696 34.5122V95.2505C33.3696 96.7579 33.7091 98.318 34.8319 99.4897C35.0687 99.7368 35.3248 99.9506 35.5969 100.134ZM33.8477 26.1883C33.4602 25.7025 33.0486 25.2369 32.6166 24.7948C29.7369 21.8477 25.7357 19.7274 21.4078 19.7274H8V10.8967C8 10.8975 8.00001 10.8982 8.00002 10.8987C8.00004 10.8995 8.00007 10.8999 8.00014 10.8999C8.00028 10.8999 8.00057 10.8979 8.00115 10.8938C8.00496 10.8673 8.02134 10.7531 8.09156 10.5446C8.17737 10.2899 8.32204 9.95896 8.54213 9.57793C8.98182 8.81675 9.68752 7.9162 10.7131 7.07511C12.7285 5.42216 16.0675 3.92754 21.2614 4.3088C29.9199 4.9444 36.9838 7.79797 42.2776 11.6807C37.8309 16.0381 34.9313 21.1494 33.8477 26.1883ZM37.8674 96.8375C37.8408 96.8165 37.8205 96.7973 37.805 96.7812C37.6826 96.6536 37.456 96.2937 37.456 95.3165V35.7229C37.456 35.2321 37.4266 34.7418 37.3696 34.2539V30.5639C37.3696 25.3575 40.1325 19.2831 45.3756 14.2508C50.7751 19.3169 53.6221 25.4842 53.6221 30.7568V34.0633C53.5647 34.5537 53.5351 35.0465 53.5351 35.5398V95.2505C53.5351 96.2311 53.3081 96.5935 53.1847 96.7223C53.077 96.8347 52.7361 97.0955 51.6833 97.0955H39.2215C38.4525 97.0955 38.0633 96.9564 37.8674 96.8375Z" fill="#EB3850"/>
</g>
<defs>
<filter id="filter0_d_3055_1652" x="0" y="0" width="90.9902" height="109.154" filterUnits="userSpaceOnUse" color-interpolation-filters="sRGB">
<feFlood flood-opacity="0" result="BackgroundImageFix"/>
<feColorMatrix in="SourceAlpha" type="matrix" values="0 0 0 0 0 0 0 0 0 0 0 0 0 0 0 0 0 0 127 0" result="hardAlpha"/>
<feOffset dy="4"/>
<feGaussianBlur stdDeviation="2"/>
<feComposite in2="hardAlpha" operator="out"/>
<feColorMatrix type="matrix" values="0 0 0 0 0 0 0 0 0 0 0 0 0 0 0 0 0 0 0.25 0"/>
<feBlend mode="normal" in2="BackgroundImageFix" result="effect1_dropShadow_3055_1652"/>
<feBlend mode="normal" in="SourceGraphic" in2="effect1_dropShadow_3055_1652" result="shape"/>
</filter>
</defs>
</svg>
