<svg width="100" height="100" viewBox="0 0 100 100" fill="none" xmlns="http://www.w3.org/2000/svg">
<rect width="100" height="100" rx="15" fill="#FFF8F9"/>
<path d="M68.4167 34.6042C67.3526 33.5396 66.0892 32.6951 64.6986 32.1189C63.3081 31.5428 61.8177 31.2462 60.3125 31.2462C58.8073 31.2462 57.3169 31.5428 55.9263 32.1189C54.5358 32.6951 53.2724 33.5396 52.2083 34.6042L50 36.8125L47.7917 34.6042C45.6423 32.4548 42.7271 31.2473 39.6875 31.2473C36.6478 31.2473 33.7327 32.4548 31.5833 34.6042C29.434 36.7535 28.2265 39.6687 28.2265 42.7084C28.2265 45.748 29.434 48.6632 31.5833 50.8125L33.7917 53.0208L50 69.2292L66.2083 53.0208L68.4167 50.8125C69.4812 49.7484 70.3257 48.485 70.9019 47.0945C71.4781 45.704 71.7746 44.2135 71.7746 42.7084C71.7746 41.2032 71.4781 39.7127 70.9019 38.3222C70.3257 36.9317 69.4812 35.6683 68.4167 34.6042V34.6042Z" stroke="#EB3850" stroke-width="3" stroke-linecap="round" stroke-linejoin="round"/>
</svg>
