<svg width="100" height="100" viewBox="0 0 100 100" fill="none" xmlns="http://www.w3.org/2000/svg">
<rect width="100" height="100" rx="15" fill="#FFF8F9"/>
<path d="M70.8333 48.0834V50C70.8308 54.4926 69.376 58.8639 66.6861 62.4622C63.9962 66.0604 60.2152 68.6927 55.907 69.9665C51.5988 71.2403 46.9943 71.0873 42.7801 69.5304C38.566 67.9735 34.968 65.0961 32.5228 61.3273C30.0776 57.5584 28.9162 53.1002 29.2118 48.6174C29.5074 44.1346 31.2442 39.8674 34.1631 36.4523C37.082 33.0372 41.0266 30.6571 45.4087 29.667C49.7908 28.6769 54.3756 29.1299 58.4792 30.9584" stroke="#EB3850" stroke-width="3" stroke-linecap="round" stroke-linejoin="round"/>
<path d="M70.8333 33.3334L50 54.1875L43.75 47.9375" stroke="#EB3850" stroke-width="3" stroke-linecap="round" stroke-linejoin="round"/>
</svg>
